# xmcd
#
# Track frame offsets: 
#        182
#        16927
#        29902
#        47370
#        63565
#        78970
#        91835
#        109500
#        125325
#        136600
#
# Disc length: 2087 seconds
#
# Revision: 3
# Processed by: cddbd v1.5.2PL0 Copyright (c) Steve Scherf et al.
# Submitted via: ExactAudioCopy v0.99pb5
#
DISCID=7308250a
DTITLE=4 Runner - 4 Runner
DYEAR=1995
DGENRE=Country
TTITLE0=A Heart With 4 Wheel Drive
TTITLE1=Good Lookin'
TTITLE2=Cain's Blood
TTITLE3=The House At The End Of The Road
TTITLE4=Ripples
TTITLE5=You Make the Moonlight
TTITLE6=Oh No
TTITLE7=Let The Good Times Roll
TTITLE8=Home Alone
TTITLE9=Southern Wind
EXTD=
EXTT0=
EXTT1=
EXTT2=
EXTT3=
EXTT4=
EXTT5=
EXTT6=
EXTT7=
EXTT8=
EXTT9=
PLAYORDER=
